<svg viewBox="0 0 16 20" xmlns="http://www.w3.org/2000/svg">
  <g id="页面-1" stroke="none" stroke-width="1" fill="none" fill-rule="evenodd">
    <g id="画板-1" transform="translate(-1048.000000, -71.000000)" fill="#334681" fill-rule="nonzero">
      <g id="Navigation" transform="translate(0.000000, 42.000000)">
        <g id="Avatar" transform="translate(1048.000000, 19.000000)">
          <g id="消息" transform="translate(0.000000, 10.000000)">
            <path
              d="M9.7772973,1.77901786 C9.7772973,0.799107143 8.98162162,0 8,0 C7.02054054,0 6.2227027,0.796875 6.2227027,1.77901786 C6.2227027,1.87946429 6.23135135,1.97767857 6.24648649,2.07366071 C3.79243243,2.92857143 1.7772973,5.55803571 1.7772973,8.66741071 L1.7772973,11.1138393 C1.7772973,11.1138393 1.7772973,14.6383929 0.912432432,14.6696429 C0.395675676,14.6696429 0,15.0669643 0,15.5580357 C0,16.0513393 0.397837838,16.4464286 0.888648649,16.4464286 L15.1113514,16.4464286 C15.6043243,16.4464286 16,16.0491071 16,15.5580357 C16,15.0625 15.6021622,14.6696429 15.1113514,14.6696429 C14.2227027,14.6696429 14.2227027,11.1383929 14.2227027,11.1383929 L14.2227027,8.66517857 C14.2227027,5.55357143 12.3394595,2.92410714 9.75351351,2.06919643 C9.76864865,1.97544643 9.7772973,1.87723214 9.7772973,1.77901786 Z M10.6659459,17.3325893 C10.6637838,18.8080357 9.48108108,20 8,20 C6.52972973,20 5.33621622,18.8102679 5.33405405,17.3325893 L10.6659459,17.3325893 Z"
              id="形状"></path>
          </g>
        </g>
      </g>
    </g>
  </g>
</svg>
