<?xml version="1.0" encoding="UTF-8"?>
<svg width="15px" height="15px" viewBox="0 0 15 15" version="1.1" xmlns="http://www.w3.org/2000/svg" xmlns:xlink="http://www.w3.org/1999/xlink">
    <title>编组</title>
    <g id="页面-1" stroke="none" stroke-width="1" fill="none" fill-rule="evenodd" opacity="0.699999988">
        <g id="画板-1" transform="translate(-404.000000, -227.000000)" fill="#FFFFFF" fill-rule="nonzero">
            <g id="Navigation2" transform="translate(104.000000, 122.000000)">
                <g id="Enter-Keyword" transform="translate(30.000000, 95.000000)">
                    <g id="编组" transform="translate(270.000000, 10.000000)">
                        <polygon id="路径" opacity="0.200000003" points="9.55126922 15 2 10.8922838 7.44873078 2 12.4829103 2 15 6.10787743"></polygon>
                        <path d="M6.22279806,14 L0,7.77720194 L7.77720194,0 L12.6850275,1.31497248 L14,6.22279806 L6.22279806,14 Z M8.6468571,5.06805311 C9.02242908,5.44365877 9.56986084,5.59035679 10.0829252,5.45288344 C10.5959895,5.31541009 10.9967329,4.91465265 11.1341884,4.40158353 C11.2716438,3.8885144 11.1249267,3.34108776 10.7493079,2.9655289 C10.3737359,2.58992324 9.82630418,2.44322521 9.31323986,2.58069856 C8.80017554,2.71817191 8.39943209,3.11892936 8.26197664,3.63199848 C8.1245212,4.1450676 8.27123834,4.69249424 8.6468571,5.06805311 L8.6468571,5.06805311 Z" id="形状"></path>
                    </g>
                </g>
            </g>
        </g>
    </g>
</svg>