<?xml version="1.0" encoding="UTF-8"?>
<svg width="15px" height="15px" viewBox="0 0 15 15" version="1.1" xmlns="http://www.w3.org/2000/svg" xmlns:xlink="http://www.w3.org/1999/xlink">
    <title>日历</title>
    <g id="页面-1" stroke="none" stroke-width="1" fill="none" fill-rule="evenodd" opacity="0.699999988">
        <g id="画板-1" transform="translate(-574.000000, -227.000000)" fill="#FFFFFF">
            <g id="Navigation2" transform="translate(104.000000, 122.000000)">
                <g id="From" transform="translate(350.000000, 95.000000)">
                    <g id="日历" transform="translate(120.000000, 10.000000)">
                        <path d="M2.09432866,1.3998829 L2.09432866,2.80005854 L4.40552032,2.80005854 L4.40552032,1.3998829 L10.5947817,1.3998829 L10.5947817,2.80005854 L12.9059734,2.80005854 L12.9059734,1.3998829 L13.5562603,1.3998829 C14.3503171,1.3998829 15,2.02985948 15,2.80005854 L15,2.80005854 L15,13.5998244 C15,14.3700234 14.3503171,15 13.5562603,15 L13.5562603,15 L1.44434377,15 C0.65028694,15 -2.84217094e-14,14.3700234 -2.84217094e-14,13.5998244 L-2.84217094e-14,13.5998244 L-2.84217094e-14,2.80005854 C-2.84217094e-14,2.02985948 0.65028694,1.3998829 1.44434377,1.3998829 L1.44434377,1.3998829 L2.09432866,1.3998829 Z M13.8450082,4.7016979 L1.15559582,4.7016979 L1.15559582,13.7400468 L13.8450082,13.7400468 L13.8450082,4.7016979 Z M12.1309449,8.6797424 L12.1309449,12.2137002 L8.50015102,12.2137002 L8.50015102,8.6797424 L12.1309449,8.6797424 Z M3.75583746,0 L3.75583746,2.37997658 L2.7446156,2.37997658 L2.7446156,0 L3.75583746,0 Z M12.2559885,0 L12.2559885,2.37997658 L11.2444646,2.37997658 L11.2444646,0 L12.2559885,0 Z" id="形状结合"></path>
                    </g>
                </g>
            </g>
        </g>
    </g>
</svg>