<svg viewBox="0 0 11 11" xmlns="http://www.w3.org/2000/svg">
  <g id="页面-1" stroke="none" stroke-width="1" fill="none" fill-rule="evenodd">
    <g id="画板-1" transform="translate(-1379.000000, -77.000000)" fill="#387DFF" fill-rule="nonzero">
      <g id="Navigation" transform="translate(0.000000, 42.000000)">
        <g id="to" transform="translate(1272.000000, 20.000000)">
          <g id="添加" transform="translate(107.000000, 15.000000)">
            <path
              d="M5.49998694,11 C2.46243046,11 0,8.53742412 0,5.4999086 C0,2.46239309 2.46243046,0 5.49998694,0 C8.53756954,0 11,2.46239309 11,5.4999086 C11,8.53742412 8.53756954,11 5.49998694,11 Z M5.49998694,0.687462471 C2.84209565,0.687462471 0.687508166,2.84205642 0.687508166,5.4999086 C0.687508166,8.15776079 2.84209564,10.3123809 5.49998694,10.3123809 C8.15787825,10.3123809 10.3124657,8.1577608 10.3124657,5.4999086 C10.3124657,2.8420564 8.15787824,0.687462471 5.49998694,0.687462471 Z M7.5624853,5.84371817 L5.84376714,5.84371817 L5.84376714,7.56245267 C5.84376714,7.75219294 5.68985871,7.90613168 5.50001306,7.90613168 C5.31016741,7.90613168 5.15628509,7.75219294 5.15628509,7.56245267 L5.15628509,5.84371817 L3.43751469,5.84371817 C3.24766904,5.84371817 3.0937606,5.68980555 3.0937606,5.4999086 C3.0937606,5.31014223 3.24769515,5.15622959 3.43751469,5.15622959 L5.15628509,5.15622959 L5.15628509,3.43741675 C5.15628509,3.24767648 5.31019352,3.09381608 5.50001306,3.09381608 C5.68988482,3.09381608 5.84376714,3.24765036 5.84376714,3.43741675 L5.84376714,5.15622959 L7.56248531,5.15622959 C7.75235708,5.15622959 7.9062394,5.31014221 7.9062394,5.4999086 C7.9062394,5.68980555 7.75235706,5.84371817 7.5624853,5.84371817 Z"
              id="形状"></path>
          </g>
        </g>
      </g>
    </g>
  </g>
</svg>
