<?xml version="1.0" encoding="UTF-8"?>
<svg width="14px" height="14px" viewBox="0 0 14 14" version="1.1" xmlns="http://www.w3.org/2000/svg" xmlns:xlink="http://www.w3.org/1999/xlink">
    <title>Refresh</title>
    <g id="页面-1" stroke="none" stroke-width="1" fill="none" fill-rule="evenodd">
        <g id="画板-1" transform="translate(-1386.000000, -327.000000)" fill="#387DFF" fill-rule="nonzero">
            <g id="Card-3" transform="translate(1005.000000, 317.000000)">
                <g id="Refresh" transform="translate(307.000000, 0.000000)">
                    <g transform="translate(74.000000, 10.000000)" id="路径">
                        <path d="M13.3437181,5.03125427 L10.5,5.03125427 C10.1372082,5.03125427 9.8437623,4.73730974 9.8437623,4.37498695 C9.8437623,4.0126963 10.1372243,3.71875176 10.5,3.71875176 L11.6415744,3.71875176 C10.6118071,2.26366206 8.91844951,1.31250251 7,1.31250251 C3.85888859,1.31250251 1.3124995,3.85889745 1.3124995,7 C1.3124995,10.1411026 3.85888859,12.6874975 7,12.6874975 C10.1411114,12.6874975 12.6875005,10.1411025 12.6875005,7 C12.6875005,6.63770132 12.9809464,6.34375677 13.3437181,6.34375677 C13.7060401,6.34375677 14,6.6377013 14,7 C14,10.865973 10.8656911,14 7,14 C3.13427682,14 0,10.865973 0,7 C0,3.13402701 3.13427681,0 7,0 C9.34617799,0 11.4184501,1.15672798 12.6875005,2.92895652 L12.6875005,1.74999799 C12.6875005,1.38767521 12.9809464,1.09374674 13.3437181,1.09374674 C13.7060401,1.09374674 14,1.38767521 14,1.74999799 L14,4.37498695 C14,4.73730972 13.706024,5.03125427 13.3437181,5.03125427 Z"></path>
                    </g>
                </g>
            </g>
        </g>
    </g>
</svg>