<svg viewBox="0 0 23 20" xmlns="http://www.w3.org/2000/svg">
  <g id="页面-1" stroke="none" stroke-width="1" fill="none" fill-rule="evenodd">
    <g id="画板-1" transform="translate(-134.000000, -72.000000)" fill="#334681" fill-rule="nonzero">
      <g id="缩进" transform="translate(134.000000, 71.000000)">
        <path
          d="M8.51004289,9.01143626 L22.3100384,9.01143626 C22.4365291,9.01143626 22.5399807,8.90905581 22.5399807,8.78406469 L22.5399807,7.19312937 C22.5399807,7.06816044 22.4365291,6.96591313 22.3100384,6.96591313 L8.51004289,6.96591313 C8.38357463,6.96591313 8.27992096,7.06813825 8.27992096,7.19312937 L8.27992096,8.78406469 C8.27992096,8.909078 8.38355217,9.01143626 8.51004289,9.01143626 Z M8.27992096,14.8068706 C8.27992096,14.9318618 8.38355217,15.0340869 8.51004289,15.0340869 L22.3100384,15.0340869 C22.4365291,15.0340869 22.5399807,14.9318618 22.5399807,14.8068706 L22.5399807,13.2159353 C22.5399807,13.0909442 22.4365291,12.9887634 22.3100384,12.9887634 L8.51004289,12.9887634 C8.38357463,12.9887634 8.27992096,13.0909442 8.27992096,13.2159353 L8.27992096,14.8068706 Z M22.7700577,1 L0.229919834,1 C0.103451575,1 0,1.10224731 0,1.22721625 L0,2.81815156 C0,2.94314268 0.103451575,3.04550094 0.229919834,3.04550094 L22.7700577,3.04550094 C22.8965484,3.04550094 23,2.94314268 23,2.81815156 L23,1.22721625 C23,1.1022695 22.8965484,1 22.7700577,1 Z M22.7700577,18.9546766 L0.229919834,18.9546766 C0.103451575,18.9546766 0,19.0568795 0,19.1818484 L0,20.7727838 C0,20.8977749 0.103451575,21 0.229919834,21 L22.7700577,21 C22.8965484,21 23,20.8977749 23,20.7727838 L23,19.1818484 C23,19.0569017 22.8965484,18.9546766 22.7700577,18.9546766 Z M0.873982799,14.6960805 L5.36755814,11.1988586 C5.49703541,11.0994071 5.49703541,10.9062955 5.36755814,10.8039372 L0.873982799,7.30398605 C0.707229728,7.17331452 0.459996856,7.28982941 0.459996856,7.49998225 L0.459996856,14.497111 C0.459996856,14.7074191 0.704445271,14.8267299 0.873982799,14.6960805 Z"
          id="形状"></path>
      </g>
    </g>
  </g>
</svg>
