<svg viewBox="0 0 48 54" xmlns="http://www.w3.org/2000/svg">
  <g id="页面-1" stroke="none" stroke-width="1" fill="none" fill-rule="evenodd">
    <g id="画板-1" transform="translate(-28.000000, -55.000000)">
      <g id="Navigation" transform="translate(0.000000, 42.000000)">
        <g id="logo" transform="translate(30.000000, 15.000000)">
          <path
            d="M21.0119812,-0.588769394 C21.6246651,-0.936885241 22.3753349,-0.936885241 22.9880188,-0.588769394 L22.9880188,-0.588769394 L43.9880188,11.3430488 C44.3007912,11.5207604 44.5537865,11.7756221 44.7285887,12.0759891 C44.9033909,12.3763562 45,12.7222287 45,13.0819619 L45,13.0819619 L45,36.9180381 C45,37.2777713 44.9033909,37.6236438 44.7285887,37.9240109 C44.5537865,38.2243779 44.3007912,38.4792396 43.9880188,38.6569512 L43.9880188,38.6569512 L22.9880188,50.5887694 C22.3753349,50.9368852 21.6246651,50.9368852 21.0119812,50.5887694 L21.0119812,50.5887694 L0.0119811848,38.6569512 C-0.300791175,38.4792396 -0.553786471,38.2243779 -0.728588677,37.9240109 C-0.903390884,37.6236438 -1,37.2777713 -1,36.9180381 L-1,36.9180381 L-1,13.0819619 C-1,12.7222287 -0.903390884,12.3763562 -0.728588677,12.0759891 C-0.553786471,11.7756221 -0.300791175,11.5207604 0.0119811848,11.3430488 L0.0119811848,11.3430488 Z"
            id="多边形" stroke-opacity="0.2" stroke="#387DFF" stroke-width="2" fill="#387DFF"
            transform="translate(22.000000, 25.000000) scale(1, -1) translate(-22.000000, -25.000000) "></path>
          <path
            d="M24.9888062,19.3153771 C24.9888062,19.0833381 24.9604417,18.8659543 24.9166793,18.6477563 L32.6783897,13.7064772 L23.0113964,30.8999518 L23.0113964,22.1299685 C24.1993288,21.7107344 24.9933064,20.5810712 24.9888062,19.3153771 Z M19.0679228,19.3308463 C19.0723709,20.5937463 19.8635461,21.7186358 21.0469534,22.1446236 L21.0469534,30.8999518 L11.0829155,13.5127755 L19.1408601,18.6632256 C19.0970977,18.8806094 19.0679228,19.0979932 19.0679228,19.3308463 Z M22.0145874,16.3420221 C21.3208732,16.3420221 20.6855088,16.574061 20.180621,16.9803327 L12.0630784,11.796719 L31.6893076,11.9748052 L23.8485539,16.9803327 C23.3244877,16.569347 22.6794117,16.3448288 22.0145874,16.3420221 Z M35.0825103,8 C33.8256482,8.00436415 32.7060127,8.79883848 32.2817201,9.98741219 L11.7620422,9.98741219 C11.3447432,8.7931573 10.2202939,7.99549803 8.96044169,8 C7.32636032,8.00226151 6.00223204,9.33252972 6,10.9741883 C6.00223206,12.6158468 7.32636034,13.946115 8.96044169,13.9483574 L9.04715598,13.9483574 L19.5882085,32.2997869 C19.2296065,32.8030594 19.037665,33.4069042 19.0395583,34.0258309 C19.0417904,35.6674894 20.3659187,36.9977576 22,37 C23.6340814,36.9977576 24.9582097,35.6674894 24.9604417,34.0258309 C24.9604417,33.2572528 24.6573469,32.5464809 24.1800132,32.0237827 L34.5776225,13.9190472 C34.7218761,13.9483574 34.8807173,13.9621983 35.0395583,13.9621983 C36.6733239,13.959957 37.9973218,12.6301839 38,10.9888434 C38,9.34910157 36.7146837,8 35.0825103,8 Z"
            id="形状" fill="#FFFFFF" fill-rule="nonzero"
            transform="translate(22.000000, 22.500000) scale(1, -1) translate(-22.000000, -22.500000) "></path>
          <path
            d="M9,33 C9.55228475,33 10,33.4477153 10,34 C10,34.5522847 9.55228475,35 9,35 C8.44771525,35 8,34.5522847 8,34 C8,33.4477153 8.44771525,33 9,33 Z M35,33 C35.5522847,33 36,33.4477153 36,34 C36,34.5522847 35.5522847,35 35,35 C34.4477153,35 34,34.5522847 34,34 C34,33.4477153 34.4477153,33 35,33 Z M22,24.5630103 C22.5522847,24.5630103 23,25.0107255 23,25.5630103 C23,26.115295 22.5522847,26.5630103 22,26.5630103 C21.4477153,26.5630103 21,26.115295 21,25.5630103 C21,25.0107255 21.4477153,24.5630103 22,24.5630103 Z M22,10 C22.5522847,10 23,10.4477153 23,11 C23,11.5522847 22.5522847,12 22,12 C21.4477153,12 21,11.5522847 21,11 C21,10.4477153 21.4477153,10 22,10 Z"
            id="形状结合" fill="#387DFF"></path>
          <path
            d="M32.6783897,16.0098063 L23.0113964,33.203281 L23.0113964,24.4332977 C24.1993288,24.0140636 24.9933064,22.8844003 24.9888062,21.6187062 C24.9888062,21.3866673 24.9604417,21.1692834 24.9166793,20.9510854 L32.6783897,16.0098063 Z M11.0829155,15.8161047 L19.1408601,20.9665547 C19.0970977,21.1839385 19.0679228,21.4013224 19.0679228,21.6341754 C19.0723709,22.8970754 19.8635461,24.0219649 21.0469534,24.4479527 L21.0469534,33.203281 L11.0829155,15.8161047 Z M12.0630784,14.1000482 L31.6893076,14.2781343 L23.8485539,19.2836618 C23.3244877,18.8726761 22.6794117,18.6481579 22.0145874,18.6453512 C21.3208732,18.6453512 20.6855088,18.8773901 20.180621,19.2836618 L12.0630784,14.1000482 Z"
            id="形状结合" fill="#387DFF" fill-rule="nonzero"
            transform="translate(21.880653, 23.651665) scale(1, -1) translate(-21.880653, -23.651665) "></path>
        </g>
      </g>
    </g>
  </g>
</svg>
