<svg width="22px" height="20px" viewBox="0 0 22 20" xmlns="http://www.w3.org/2000/svg">
  <g id="页面-1" fill-rule="evenodd">
    <g id="画板-1" transform="translate(-41.000000, -466.000000)">
      <g id="data备份" transform="translate(30.000000, 454.000000)">
        <g id="项目-(1)" transform="translate(11.000000, 12.000000)" fill="#fff">
          <path
            d="M16.9644656,10.3113239 L9.61523865,10.3113239 C9.00280307,10.3113239 8.51285459,9.81495333 8.51285459,9.19449006 C8.51285459,8.57402679 9.00280305,8.07765618 9.61523865,8.07765618 L16.9644656,8.07765618 C17.5769012,8.07765618 18.0668497,8.57402679 18.0668497,9.19449006 C18.0668497,9.81495333 17.5769012,10.3113239 16.9644656,10.3113239 L16.9644656,10.3113239 Z M4.40953618,13.5997793 C4.40953618,14.2822889 4.89948465,14.7786595 5.5731638,14.7786595 C6.21581759,14.7786595 6.73679141,14.2508568 6.73679141,13.5997793 C6.73679141,12.9487017 6.21581759,12.4208991 5.5731638,12.4208991 C4.89948467,12.4208991 4.40953618,12.9172697 4.40953618,13.5997793 Z M4.40953618,9.19449006 C4.40953618,9.87699965 4.89948465,10.3733703 5.5731638,10.3733703 C6.21581758,10.3733703 6.73679138,9.84556763 6.73679138,9.19449008 C6.73679138,8.54341252 6.21581756,8.01560988 5.57316379,8.01560988 C4.93051002,8.01560988 4.40953618,8.54341251 4.40953618,9.19449006 Z M16.9644656,14.7166132 L9.61523865,14.7166132 C9.00280307,14.7166132 8.51285459,14.2202426 8.51285459,13.5997793 C8.51285459,12.979316 9.00280305,12.4829454 9.61523865,12.4829454 L16.9644656,12.4829454 C17.5769012,12.4829454 18.0668497,12.979316 18.0668497,13.5997793 C18.0668497,14.2202426 17.5769012,14.7166132 16.9644656,14.7166132 L16.9644656,14.7166132 Z M21.9864374,18.3153001 L21.9864374,4.35487657 C21.9864374,2.67962574 20.4553485,2.8037184 20.4553485,2.8037184 L11.8200067,2.8037184 C11.3300583,2.8037184 11.0238405,2.5555331 11.0238405,2.5555331 C11.0238405,2.5555331 10.6563791,1.93506982 9.98269999,0.942328584 C9.3702644,-0.174505297 8.57409814,0.0116336868 8.57409816,0.0116336868 L1.89855031,0.0116336868 C0,0.0116336868 0,1.81097716 0,1.81097716 L0,18.1912075 C0,20.2387363 1.53108895,19.9905509 1.53108895,19.9905509 L20.6390791,19.9905509 C22.2314116,19.9905509 21.9864374,18.3153001 21.9864374,18.3153001 Z"
            id="形状"></path>
        </g>
      </g>
    </g>
  </g>
</svg>
