<svg width="22px" height="22px" viewBox="0 0 22 22" xmlns="http://www.w3.org/2000/svg">
  <g id="画板-1" transform="translate(-41.000000, -277.000000)">
    <g id="data备份" transform="translate(30.000000, 266.000000)" fill="#fff">
      <path
        d="M22,11 C28.0751322,11 33,15.9248678 33,22 C33,28.0751322 28.0751322,33 22,33 C15.9248678,33 11,28.0751322 11,22 C11,15.9248678 15.9248678,11 22,11 Z M25.7318182,16 C23.6230946,16 21.9136364,17.6117749 21.9136364,19.6 L21.9136364,19.6 L21.9136364,24.4 C21.9136364,25.7254834 20.7739975,26.8 19.3681818,26.8 C17.9623661,26.8 16.8227273,25.7254834 16.8227273,24.4 C16.8227273,23.0745166 17.9623661,22 19.3681818,22 L19.3681818,22 L19.3681818,20.8 C17.2594582,20.8 15.55,22.4117749 15.55,24.4 C15.55,26.3882251 17.2594582,28 19.3681818,28 C21.4769054,28 23.1863636,26.3882251 23.1863636,24.4 L23.1863636,24.4 L23.1863636,19.6 C23.1863636,18.2745166 24.3260025,17.2 25.7318182,17.2 C27.1376339,17.2 28.2772727,18.2745166 28.2772727,19.6 C28.2772727,20.9254834 27.1376339,22 25.7318182,22 L25.7318182,22 L25.7318182,23.2 C27.8405418,23.2 29.55,21.5882251 29.55,19.6 C29.55,17.6117749 27.8405418,16 25.7318182,16 Z"
        id="形状结合"></path>
    </g>
  </g>
</svg>
