<svg width="22px" height="21px" viewBox="0 0 22 21" xmlns="http://www.w3.org/2000/svg">
  <g id="画板-1" transform="translate(-41.000000, -372.000000)">
    <g id="data备份-2" transform="translate(30.000000, 360.000000)" fill="#fff">
      <path
        d="M15.3842963,20.6506995 C16.6028099,20.6506995 17.5906104,21.6385 17.5906104,22.8570137 L17.5906104,27.0950849 C17.5906104,28.3135986 16.6028099,29.3013991 15.3842963,29.3013991 C14.1657826,29.3013991 13.1779822,28.3135986 13.1779822,27.0950849 L13.1779822,22.8570137 C13.1779822,21.6385 14.1657826,20.6506995 15.3842963,20.6506995 Z M21.9717183,12 C23.1902319,12 24.1780324,12.9878005 24.1780324,14.2063141 L24.1780324,27.0950849 C24.1780324,28.3135986 23.1902319,29.3013991 21.9717183,29.3013991 C20.7532046,29.3013991 19.7654041,28.3135986 19.7654041,27.0950849 L19.7654041,14.2063141 C19.7654041,12.9878005 20.7532046,12 21.9717183,12 Z M28.5591151,15.0575029 C29.7776288,15.0575029 30.7654293,16.0453034 30.7654293,17.263817 L30.7654293,27.0950355 C30.7654293,28.3135492 29.7776288,29.3013497 28.5591151,29.3013497 C27.3406015,29.3013497 26.352801,28.3135492 26.352801,27.0950355 L26.352801,17.263817 C26.352801,16.0453034 27.3406015,15.0575029 28.5591151,15.0575029 Z M13.2063016,30.8296072 L12.0851964,30.8296072 C11.485859,30.8296072 11,31.3154661 11,31.9148036 C11,32.514141 11.485859,33 12.0851964,33 L31.9148036,33 C32.514141,33 33,32.514141 33,31.9148036 C33,31.3154661 32.514141,30.8296072 31.9148036,30.8296072 L13.2063016,30.8296072 Z"
        id="形状"></path>
    </g>
  </g>
</svg>
