<svg width="24px" height="20px" viewBox="0 0 24 20" xmlns="http://www.w3.org/2000/svg">
  <g id="画板-1" transform="translate(-40.000000, -184.000000)" fill-rule="nonzero">
    <g id="data" transform="translate(30.000000, 172.000000)">
      <g id="数据" transform="translate(10.000000, 12.000000)" fill="#fff">
        <path
          d="M20.8082051,10.0144338 L20.8109402,10.0144338 L20.8109402,4.99934392 C20.8109402,4.67392731 20.5374359,4.41149455 20.1982906,4.41149455 L14.977094,4.41149455 C14.6379487,4.41149455 14.3644444,4.67392731 14.3644444,4.99934392 C14.3644444,5.32476053 14.6379487,5.58719328 14.977094,5.58719328 L18.7952137,5.58719328 C18.7842735,5.59506626 18.7733333,5.60031492 18.7623932,5.61081223 C16.6044444,7.60530114 13.4947009,10.4736911 12.4307692,11.442068 C11.7087179,10.7912347 10.0239316,9.15103005 8.50324786,7.63679307 C8.39111111,7.52657132 8.23521368,7.46096313 8.07384615,7.4583388 C7.90974359,7.45309015 7.7565812,7.51607401 7.63897436,7.62367143 L3.1234188,11.8016008 C2.88,12.027293 2.87179487,12.3999475 3.10700855,12.6335127 C3.34222222,12.8670778 3.73059829,12.8749508 3.97401709,12.6492586 L8.04923077,8.88072431 C8.46222222,9.29011941 9.12136752,9.94095263 9.78051282,10.5812885 C10.4123077,11.1953812 10.9237607,11.6835061 11.2957265,12.0299173 C11.522735,12.2424879 11.6977778,12.3999475 11.8290598,12.5101693 C11.968547,12.628264 12.1928205,12.8198399 12.4635897,12.8198399 C12.5702564,12.8198399 12.6823932,12.7909723 12.797265,12.7174911 C12.8547009,12.6807506 12.9641026,12.612518 19.582906,6.48996195 L19.582906,10.0144338 C19.582906,10.3398504 19.8564103,10.6022832 20.1955556,10.6022832 C20.5347009,10.6022832 20.8082051,10.3398504 20.8082051,10.0144338 Z M21.3305983,0 C22.8020513,0 24,1.14945545 24,2.56134366 L24,14.743472 C24,16.1553602 22.8020513,17.3048156 21.3305983,17.3048156 L2.66940171,17.3048156 C1.19794872,17.3048156 0,16.1553602 0,14.743472 L0,2.56134366 C0,1.14945545 1.19794872,0 2.66940171,0 L21.3305983,0 Z M18.8335043,18.8243013 C19.1699145,18.8243013 19.4461538,19.086734 19.4461538,19.4121506 C19.4461538,19.7375672 19.1726496,20 18.8335043,20 L5.04888889,20 C4.70974359,20 4.43623932,19.7375672 4.43623932,19.4121506 C4.43623932,19.086734 4.70974359,18.8243013 5.04888889,18.8243013 L18.8335043,18.8243013 Z"
          id="形状"></path>
      </g>
    </g>
  </g>
</svg>
